<?xml version="1.0" standalone="no"?><svg xmlns="http://www.w3.org/2000/svg" viewBox="0 0 1440 320"><path fill="ghostwhite" fill-opacity="0.5" d="M0,128L40,112C80,96,160,64,240,69.3C320,75,400,117,480,165.3C560,213,640,267,720,261.3C800,256,880,192,960,165.3C1040,139,1120,149,1200,165.3C1280,181,1360,203,1400,213.3L1440,224L1440,320L1400,320C1360,320,1280,320,1200,320C1120,320,1040,320,960,320C880,320,800,320,720,320C640,320,560,320,480,320C400,320,320,320,240,320C160,320,80,320,40,320L0,320Z"></path></svg>